<?xml version="1.0" encoding="UTF-8"?>
<svg version="1.1" xmlns="http://www.w3.org/2000/svg" width="1536" height="1024">
<path d="M0 0 C506.88 0 1013.76 0 1536 0 C1536 337.92 1536 675.84 1536 1024 C1029.12 1024 522.24 1024 0 1024 C0 686.08 0 348.16 0 0 Z " fill="#FDFDFD" transform="translate(0,0)"/>
<path d="M0 0 C1.92092414 -0.00543695 3.84184409 -0.01256833 5.76275635 -0.02124023 C10.92413211 -0.03929213 16.08518382 -0.03248127 21.24656439 -0.01972389 C26.68506499 -0.00949827 32.12354039 -0.01901609 37.56204224 -0.02526855 C46.69212756 -0.03251863 55.82208291 -0.02302822 64.95214844 -0.00390625 C75.45751277 0.01784422 85.96256627 0.01081356 96.46792305 -0.01121187 C105.53861397 -0.02945716 114.60921217 -0.03187949 123.67991555 -0.0214572 C129.07497051 -0.01527045 134.46988017 -0.01425173 139.86492538 -0.02760315 C144.94269097 -0.03929447 150.02006226 -0.03089774 155.09778595 -0.00802612 C156.94383469 -0.00280848 158.78991756 -0.00413084 160.635952 -0.01307678 C185.92777563 -0.12418996 209.01836572 5.10370088 228.09814453 22.51757812 C233.68538429 28.10481789 237.8152473 34.31038446 241.47314453 41.26757812 C241.79516846 41.86199707 242.11719238 42.45641602 242.44897461 43.06884766 C249.30559465 56.97078541 248.54492916 72.84560401 248.49658203 87.91601562 C248.4986085 90.16313776 248.50152468 92.41025924 248.50527954 94.65737915 C248.50967773 99.34554361 248.5033543 104.03353546 248.48925781 108.72167969 C248.4721876 114.68457008 248.4820098 120.64705457 248.4999752 126.60993004 C248.51089809 131.24464894 248.50732767 135.87927415 248.49959183 140.51399612 C248.4976122 142.7104866 248.49996889 144.90698602 248.50703049 147.10346603 C248.57519783 174.2622817 244.58124183 196.26264509 225.41064453 216.70507812 C208.09772961 233.35820208 185.70094666 238.71089542 162.39826965 238.63783264 C161.38023355 238.63868707 160.36219744 238.63954149 159.31331176 238.64042181 C155.9340351 238.64205661 152.55480912 238.63658827 149.17553711 238.63110352 C146.74044801 238.63082119 144.30535883 238.63098027 141.87026978 238.63154602 C136.64408194 238.63177305 131.41790537 238.62895396 126.19172096 238.62330818 C118.63571104 238.61515088 111.07970714 238.61257364 103.52369329 238.61132019 C91.26196722 238.6091363 79.00024783 238.60249423 66.73852539 238.59301758 C54.83357781 238.58382629 42.92863206 238.57675386 31.02368164 238.57250977 C30.28878369 238.57224704 29.55388574 238.57198432 28.79671816 238.57171363 C25.10962955 238.57040851 21.42254093 238.56914483 17.73545229 238.56790173 C-12.81032174 238.55754976 -43.35608768 238.53987473 -73.90185547 238.51757812 C-73.97208502 214.78604055 -74.0249118 191.05451865 -74.05729198 167.32289791 C-74.07272947 156.30271356 -74.09375909 145.28259395 -74.12817383 134.26245117 C-74.15817196 124.65195675 -74.17745311 115.04150924 -74.18412095 105.4309693 C-74.18801563 100.34711333 -74.19710301 95.26339154 -74.21904564 90.17957878 C-74.23957567 85.38368941 -74.24565626 80.58798809 -74.24117851 75.79205894 C-74.24199639 74.04227421 -74.24786283 72.29248246 -74.25947189 70.54273605 C-74.38505025 50.61938256 -71.71085449 32.67779528 -57.22607422 17.70117188 C-49.03687727 10.00745575 -40.68652646 4.69236872 -29.64572144 2.29992676 C-28.86992103 2.13141724 -28.09412063 1.96290772 -27.29481113 1.78929186 C-18.21712874 -0.02373769 -9.22293913 -0.04458662 0 0 Z " fill="#EDB53A" transform="translate(223.90185546875,359.482421875)"/>
<path d="M0 0 C21.16791871 -0.09061012 42.33567819 -0.16416126 63.50374222 -0.20724869 C73.33443439 -0.22779471 83.1649967 -0.25576134 92.99560547 -0.30175781 C101.57300212 -0.34187118 110.15030464 -0.3674905 118.7277925 -0.37635398 C123.26133757 -0.38152765 127.79461355 -0.39351743 132.32807159 -0.42292023 C162.99287 -0.61376652 191.17343544 0.25379033 215 22 C220.58723976 27.58723976 224.71710277 33.79280634 228.375 40.75 C228.69702393 41.34441895 229.01904785 41.93883789 229.35083008 42.55126953 C236.20745012 56.45320729 235.44678463 72.32802589 235.3984375 87.3984375 C235.40046397 89.64555963 235.40338015 91.89268112 235.40713501 94.13980103 C235.4115332 98.82796549 235.40520977 103.51595733 235.39111328 108.20410156 C235.37404307 114.16699195 235.38386526 120.12947644 235.40183067 126.09235191 C235.41275356 130.72707082 235.40918313 135.36169603 235.4014473 139.996418 C235.39946767 142.19290848 235.40182436 144.38940789 235.40888596 146.58588791 C235.47705329 173.74470357 231.4830973 195.74506696 212.3125 216.1875 C197.77488095 230.17109393 178.4559218 237.35159127 158.52539062 237.22705078 C157.27549095 237.22729185 156.02559128 237.22753292 154.73781586 237.2277813 C151.37762234 237.2265404 148.01768004 237.21669621 144.65753174 237.20256042 C141.4966269 237.19111276 138.33572777 237.19063105 135.17480469 237.18920898 C125.9498509 237.1787428 116.72492359 237.15082028 107.5 237.125 C86.875 237.08375 66.25 237.0425 45 237 C45 184.2 45 131.4 45 77 C59.829375 76.9175 74.65875 76.835 89.9375 76.75 C94.60640381 76.71358398 99.27530762 76.67716797 104.08569336 76.63964844 C109.82141113 76.62158203 109.82141113 76.62158203 112.51319885 76.6182251 C114.37867558 76.61211413 116.24413728 76.59811113 118.10951233 76.57769775 C120.94820267 76.54820703 123.78593417 76.54438286 126.62475586 76.54589844 C127.44489387 76.531506 128.26503187 76.51711357 129.11002254 76.502285 C135.53514819 76.5478783 141.80335801 78.02498069 146.6313467 82.5182457 C150.6876709 87.28023792 151.16791481 90.52091781 151.203125 96.5703125 C151.20882507 97.32537079 151.21452515 98.08042908 151.22039795 98.85836792 C151.22985417 100.46057737 151.2363844 102.06280633 151.24023438 103.66503906 C151.24987994 106.09475728 151.28087081 108.52360757 151.3125 110.953125 C151.31903639 112.51301583 151.32428436 114.0729127 151.328125 115.6328125 C151.3404718 116.35083038 151.3528186 117.06884827 151.36553955 117.80862427 C151.34249017 123.13620192 150.17022407 127.12287967 148 132 C146.09765625 133.83984375 146.09765625 133.83984375 144.0625 134.9375 C143.39347656 135.31777344 142.72445312 135.69804687 142.03515625 136.08984375 C138.15692003 137.82425649 134.72949563 138.12323279 130.49707031 138.11352539 C129.39623108 138.11344986 128.29539185 138.11337433 127.16119385 138.11329651 C125.97878113 138.10813522 124.79636841 138.10297394 123.578125 138.09765625 C121.75544098 138.09553383 121.75544098 138.09553383 119.89593506 138.09336853 C116.01393169 138.08776988 112.13198594 138.0752176 108.25 138.0625 C105.61849042 138.05748483 102.98697993 138.05292195 100.35546875 138.04882812 C93.90362617 138.03780089 87.4518172 138.02106408 81 138 C80.94593994 138.77819092 80.89187988 139.55638184 80.83618164 140.3581543 C80.24104467 148.53839425 79.40730812 156.66889589 78.4375 164.8125 C78.29892578 165.99392578 78.16035156 167.17535156 78.01757812 168.39257812 C77.6806827 171.26199774 77.34146436 174.13112115 77 177 C85.73763192 176.93832833 94.47495021 176.86090069 103.21226597 176.76428509 C107.2709657 176.71988001 111.32957192 176.68056167 115.38842773 176.65356445 C119.31791143 176.62722895 123.24702919 176.58662327 127.17628288 176.53681374 C128.66265183 176.52034646 130.14908376 176.50870866 131.63553047 176.50238609 C147.74016293 176.42707117 167.91338705 174.99363901 180 163 C182.24648072 160.13067984 184.15959223 157.1421596 186 154 C186.5775 153.030625 187.155 152.06125 187.75 151.0625 C190.97164723 143.16946428 191.31720149 134.97209403 191.3359375 126.54296875 C191.3425943 125.47814774 191.3492511 124.41332672 191.35610962 123.3162384 C191.36617566 121.07664705 191.37092853 118.83702606 191.37060547 116.59741211 C191.37497486 113.20700703 191.41135069 109.81790963 191.44921875 106.42773438 C191.53244795 90.51807458 190.81066862 76.53381373 179.41015625 64.29296875 C166.29733841 52.10576158 149.36462796 51.86600235 132.48413086 51.79467773 C131.03454317 51.78508183 129.58495818 51.77507079 128.13537598 51.76467896 C124.224894 51.73780913 120.31440018 51.71670338 116.40387797 51.69667697 C112.30793179 51.67470591 108.21202137 51.64737198 104.11610413 51.62062073 C96.37095144 51.57084338 88.62577874 51.5258495 80.88058716 51.48259836 C72.05827359 51.43309759 63.23599593 51.37822736 54.41371715 51.32291877 C36.27584338 51.20932855 18.13793636 51.1031488 0 51 C0 34.17 0 17.34 0 0 Z " fill="#333537" transform="translate(237,360)"/>
<path d="M0 0 C36.50111466 -0.04030303 36.50111466 -0.04030303 51.81445312 -0.04882812 C62.38159674 -0.05475825 72.94873238 -0.06172405 83.51586914 -0.07543945 C91.21236587 -0.08542419 98.90885611 -0.09186244 106.60535914 -0.09408849 C110.6784572 -0.09538917 114.75153672 -0.09843422 118.82462883 -0.10573006 C122.66343231 -0.1125501 126.50220971 -0.11460484 130.34101868 -0.11310768 C131.74500228 -0.11338133 133.14898682 -0.11535078 134.55296516 -0.11920547 C151.40929572 -0.16319002 167.68366886 1.26856659 180.8125 13.125 C189.93553596 23.01559908 192.31240186 35.35857822 192.30078125 48.296875 C192.30506638 49.36689758 192.3093515 50.43692017 192.31376648 51.53936768 C192.3194873 53.79511816 192.3200267 56.05088709 192.31567383 58.30664062 C192.3125225 61.72558736 192.33597239 65.14366052 192.36132812 68.5625 C192.36360246 70.76562392 192.36430399 72.96875014 192.36328125 75.171875 C192.37709587 76.68186066 192.37709587 76.68186066 192.39118958 78.22235107 C192.30529018 91.65876637 188.68245227 104.31754773 179 114 C167.84044566 122.60123754 152.72150542 126.13893854 138.87133789 126.11352539 C138.19731934 126.11367142 137.52330078 126.11381744 136.82885742 126.1139679 C134.62675628 126.11327769 132.4247424 126.10552764 130.22265625 126.09765625 C128.68566433 126.09578889 127.14867181 126.09436649 125.61167908 126.09336853 C121.58562549 126.08956837 117.55960854 126.0797597 113.53356934 126.06866455 C109.41756689 126.0583964 105.30155847 126.05385938 101.18554688 126.04882812 C93.12368119 126.03813497 85.06184517 126.02108891 77 126 C77.48505548 116.244674 78.12601768 106.60798143 79.5625 96.9375 C79.70107422 95.96490234 79.83964844 94.99230469 79.98242188 93.99023438 C80.31542879 91.65918599 80.65453199 89.3292279 81 87 C81.66683807 86.99635437 82.33367615 86.99270874 83.02072144 86.98895264 C89.99723448 86.94695629 96.97310012 86.87749096 103.94921875 86.79248047 C106.54843655 86.7643546 109.14773855 86.74309864 111.74707031 86.72900391 C115.49587857 86.70745903 119.24368334 86.66074623 122.9921875 86.609375 C124.14363251 86.60814636 125.29507751 86.60691772 126.48141479 86.60565186 C133.60723981 86.47795895 139.724211 85.56647651 146 82 C150.16091427 76.95646755 150.1740317 71.47961344 150.23828125 65.1640625 C150.25038887 64.02860489 150.25038887 64.02860489 150.26274109 62.87020874 C150.27654217 61.27156845 150.28728202 59.67289918 150.29516602 58.07421875 C150.30669729 56.44489872 150.32716744 54.8156168 150.35668945 53.18652344 C150.39946388 50.82461036 150.41554602 48.46381529 150.42578125 46.1015625 C150.45204338 45.01846298 150.45204338 45.01846298 150.47883606 43.91348267 C150.45706721 38.79888903 149.19202875 35.95045298 146 32 C140.19380573 27.44244966 134.34105939 26.84299702 127.21411133 26.79467773 C126.30182864 26.78464501 125.38954596 26.77461229 124.44961834 26.76427555 C121.49378189 26.73286949 118.53793204 26.70811065 115.58203125 26.68359375 C113.75825562 26.66519226 111.93448432 26.64635568 110.11071777 26.6270752 C103.34469653 26.55860554 96.5785921 26.49856684 89.8125 26.4375 C74.694375 26.293125 59.57625 26.14875 44 26 C44 61.64 44 97.28 44 134 C29.48 134 14.96 134 0 134 C0 89.78 0 45.56 0 0 Z " fill="#FCFBFB" transform="translate(237,411)"/>
<path d="M0 0 C53.20645161 0 53.20645161 0 63 9 C70.76186888 18.57952172 71.15171555 28.05159676 70 40 C67.83660096 48.36042527 62.11929855 53.90197431 54.8828125 58.28125 C49.46446867 61.14377127 44.62482191 62.13198225 38.48046875 62.09765625 C37.55903076 62.09515869 36.63759277 62.09266113 35.68823242 62.09008789 C34.53299072 62.08098389 33.37774902 62.07187988 32.1875 62.0625 C26.6496875 62.0315625 26.6496875 62.0315625 21 62 C21 72.89 21 83.78 21 95 C14.07 95 7.14 95 0 95 C0 63.65 0 32.3 0 0 Z " fill="#363839" transform="translate(902,428)"/>
<path d="M0 0 C7.92929178 4.82945533 14.08890286 11.77488406 17.14453125 20.62890625 C20.00660826 32.95282688 18.35827568 43.45103575 12 54.3125 C9.96970569 57.24170323 7.90064073 59.25238585 5 61.3125 C4.21625 61.88871094 3.4325 62.46492187 2.625 63.05859375 C-6.65520381 68.76644638 -17.45387877 68.84753226 -28 67.3125 C-37.18618784 64.6022893 -44.66295488 58.90299609 -49.3125 50.5 C-53.72437928 40.6348107 -54.78846205 28.84555442 -51.375 18.5625 C-47.32310445 8.75041845 -41.15934239 2.3747556 -31.3515625 -1.8203125 C-21.51128634 -4.36639794 -9.23008951 -4.47693868 0 0 Z " fill="#323435" transform="translate(1029,456.6875)"/>
<path d="M0 0 C0 12.54 0 25.08 0 38 C2.64 36.02 5.28 34.04 8 32 C17.13413498 28.19411043 24.16075441 27.97836928 33.37890625 31.609375 C39.62658798 34.92409139 42.96742163 40.03462742 45.36270142 46.57843018 C46.58758797 51.23268236 46.36332077 55.93710044 46.29296875 60.71875 C46.28872391 61.81723267 46.28447906 62.91571533 46.28010559 64.04748535 C46.26340661 67.5319136 46.22576996 71.01574861 46.1875 74.5 C46.17244185 76.87238744 46.15875543 79.24478401 46.14648438 81.6171875 C46.11353173 87.41168448 46.06180965 93.20574189 46 99 C39.73 99 33.46 99 27 99 C26.95101562 96.03773438 26.90203125 93.07546875 26.8515625 90.0234375 C26.79750155 87.14399305 26.74021414 84.26462954 26.68261719 81.38525391 C26.64441252 79.38922188 26.60954498 77.39312301 26.578125 75.39697266 C26.53228936 72.52221846 26.47432559 69.64792108 26.4140625 66.7734375 C26.40251129 65.88570648 26.39096008 64.99797546 26.37905884 64.08334351 C26.25157328 58.69115016 26.09176518 53.52754959 22.5 49.1875 C19.28865814 46.6451877 16.44687378 46.55486954 12.4609375 46.57421875 C8.13444749 47.3227702 5.07161926 49.97539532 2 53 C0.84708316 55.30583369 0.84602662 56.69866887 0.79467773 59.26611328 C0.77473251 60.14687531 0.75478729 61.02763733 0.73423767 61.93508911 C0.70916893 63.36327469 0.70916893 63.36327469 0.68359375 64.8203125 C0.66281265 65.79410858 0.64203156 66.76790466 0.62062073 67.77120972 C0.55511402 70.88906647 0.49623503 74.00700903 0.4375 77.125 C0.39431585 79.23568604 0.3507016 81.34636333 0.30664062 83.45703125 C0.19862023 88.63793407 0.09955507 93.81889984 0 99 C-6.6 99 -13.2 99 -20 99 C-20 66.99 -20 34.98 -20 2 C-14.06 1.505 -14.06 1.505 -8 1 C-6 0 -6 0 0 0 Z " fill="#D69209" transform="translate(843,424)"/>
<path d="M0 0 C0.98162109 -0.01611328 1.96324219 -0.03222656 2.97460938 -0.04882812 C12.05790639 -0.05483957 20.06193158 1.31484247 27.1171875 7.32421875 C32.72218087 14.42108847 33.24652463 20.48730496 33.078125 29.25 C33.07246521 30.37067871 33.06680542 31.49135742 33.06097412 32.64599609 C33.03870292 36.20194417 32.98852177 39.75685989 32.9375 43.3125 C32.91742313 45.7330583 32.89917445 48.15363249 32.8828125 50.57421875 C32.83886813 56.48737289 32.76990308 62.39976181 32.6875 68.3125 C27.0775 68.3125 21.4675 68.3125 15.6875 68.3125 C15.6875 66.0025 15.6875 63.6925 15.6875 61.3125 C15.0275 61.3125 14.3675 61.3125 13.6875 61.3125 C13.44257812 61.91578125 13.19765625 62.5190625 12.9453125 63.140625 C10.47338078 67.40892945 6.24842027 68.89280178 1.6875 70.3125 C-5.23893928 71.17830491 -12.75799523 71.83557869 -19 68.1875 C-23.64298897 64.55920398 -27.85555901 60.14026398 -29.3125 54.3125 C-30.07766937 47.52015035 -29.54206694 41.85263698 -25.3125 36.3125 C-19.00279958 30.03128581 -11.46625764 27.18987374 -2.62109375 27.01953125 C-0.66384527 27.03916919 1.29330466 27.07449628 3.25 27.125 C4.76303711 27.14530273 4.76303711 27.14530273 6.30664062 27.16601562 C8.76750621 27.20100424 11.22720335 27.25008842 13.6875 27.3125 C13.45738238 23.32379465 13.26356445 20.98694358 10.62890625 17.90234375 C6.90694321 15.89060542 3.74967543 15.74966074 -0.375 15.875 C-1.49249634 15.89046875 -1.49249634 15.89046875 -2.63256836 15.90625 C-9.11339098 16.09553205 -15.14060199 17.31466018 -21.3125 19.3125 C-21.81721197 17.54300388 -22.31610685 15.77184777 -22.8125 14 C-23.0909375 13.01386719 -23.369375 12.02773438 -23.65625 11.01171875 C-24.3125 8.3125 -24.3125 8.3125 -24.3125 5.3125 C-16.02195374 0.8639142 -9.27379026 -0.03009017 0 0 Z " fill="#343536" transform="translate(1187.3125,453.6875)"/>
<path d="M0 0 C6.34425314 4.62895507 9.44406975 11.04518889 11.109375 18.5390625 C11.109375 24.1490625 11.109375 29.7590625 11.109375 35.5390625 C-4.070625 35.5390625 -19.250625 35.5390625 -34.890625 35.5390625 C-31.51804769 43.90523229 -31.51804769 43.90523229 -25.296875 48.98828125 C-16.66703692 50.96361756 -7.14938417 50.30810443 1.09375 47.1953125 C3.109375 46.5390625 3.109375 46.5390625 7.109375 46.5390625 C7.44757666 48.1213631 7.77973439 49.70495625 8.109375 51.2890625 C8.295 52.17078125 8.480625 53.0525 8.671875 53.9609375 C9.109375 56.5390625 9.109375 56.5390625 9.109375 60.5390625 C7.73866719 61.19395623 6.36254056 61.83751213 4.984375 62.4765625 C3.83582031 63.01603516 3.83582031 63.01603516 2.6640625 63.56640625 C-3.5624673 65.9370575 -10.06463131 65.78491392 -16.640625 65.8515625 C-18.04828125 65.89506836 -18.04828125 65.89506836 -19.484375 65.93945312 C-29.23626339 66.02700461 -37.301582 62.91253389 -44.84375 56.734375 C-53.00726373 47.97885073 -54.4661996 37.16802532 -54.234375 25.6953125 C-53.79056182 17.63270644 -50.24212089 9.92166383 -44.6875 4.06640625 C-31.52293841 -7.1234711 -14.84753461 -8.75492558 0 0 Z " fill="#303233" transform="translate(1314.890625,458.4609375)"/>
<path d="M0 0 C6.27 0 12.54 0 19 0 C19.02578125 3.01125 19.0515625 6.0225 19.078125 9.125 C19.11660362 12.06080228 19.16174513 14.99643237 19.20751953 17.93212891 C19.23564035 19.96296892 19.25689886 21.99391657 19.27099609 24.02490234 C19.29254898 26.95465855 19.33926222 29.88313265 19.390625 32.8125 C19.39185364 33.71178223 19.39308228 34.61106445 19.39434814 35.53759766 C19.52905276 41.41451661 20.56580802 46.12318761 24 51 C27.4611772 52.7305886 31.20888884 52.34522766 35 52 C40.25851687 50.21408861 42.40891546 47.85946742 45 43 C45.58491173 39.66789057 45.60481312 36.38513577 45.609375 33.0078125 C45.62591125 32.06187225 45.64244751 31.11593201 45.65948486 30.1413269 C45.70786315 27.13581788 45.72931338 24.13081448 45.75 21.125 C45.77816816 19.08070387 45.80809677 17.03643119 45.83984375 14.9921875 C45.91691753 9.99456137 45.95753171 4.99851796 46 0 C52.6 0 59.2 0 66 0 C66 22.44 66 44.88 66 68 C60.06 68 54.12 68 48 68 C48 65.03 48 62.06 48 59 C47.34 59 46.68 59 46 59 C45.79375 59.5775 45.5875 60.155 45.375 60.75 C42.4031152 65.61308422 37.29003209 67.54241396 32 69 C16.02378193 70.41063116 16.02378193 70.41063116 9.609375 66.39453125 C4.39311219 61.8746142 1.28614927 56.79775193 0 50 C-0.26366818 46.1238557 -0.23321894 42.26246765 -0.1953125 38.37890625 C-0.1924826 37.27900864 -0.18965271 36.17911102 -0.18673706 35.04588318 C-0.1755898 31.55130897 -0.15049498 28.05699606 -0.125 24.5625 C-0.11496316 22.18555059 -0.10583854 19.80859714 -0.09765625 17.43164062 C-0.07566827 11.62099389 -0.04117582 5.81054117 0 0 Z " fill="#D59008" transform="translate(602,455)"/>
<path d="M0 0 C5.71379319 4.56045345 9.21516858 9.95165115 10.14729309 17.33380127 C10.25685978 20.42811294 10.24727882 23.49809627 10.1875 26.59375 C10.18184021 27.71301376 10.17618042 28.83227753 10.17034912 29.98545837 C10.14810751 33.53112062 10.09793231 37.07574123 10.046875 40.62109375 C10.02679429 43.0370947 10.00854629 45.45311161 9.9921875 47.86914062 C9.9482825 53.76602125 9.87933857 59.6621314 9.796875 65.55859375 C3.196875 65.55859375 -3.403125 65.55859375 -10.203125 65.55859375 C-10.21730469 62.30757812 -10.23148438 59.0565625 -10.24609375 55.70703125 C-10.27672981 52.54953711 -10.31581467 49.39225237 -10.35571289 46.23486328 C-10.37887323 44.04483474 -10.39328397 41.85469513 -10.39868164 39.66455078 C-10.40798525 36.51134176 -10.44900853 33.35987501 -10.49609375 30.20703125 C-10.4921611 29.23180511 -10.48822845 28.25657898 -10.48417664 27.25180054 C-10.58010612 22.75641859 -10.72618026 19.5356076 -13.59326172 15.93847656 C-16.41652038 13.36400271 -17.39438651 12.77971982 -21.140625 12.93359375 C-26.99767593 13.3078184 -30.15623893 15.59468319 -34.32910156 19.59838867 C-36.98600265 23.79522631 -36.80579195 27.3594077 -36.8125 32.234375 C-36.82903625 33.15953415 -36.84557251 34.0846933 -36.86260986 35.03788757 C-36.91105496 37.9823574 -36.93245311 40.92631088 -36.953125 43.87109375 C-36.98128759 45.87177072 -37.01121542 47.87242367 -37.04296875 49.87304688 C-37.12012591 54.76846587 -37.16067737 59.66225927 -37.203125 64.55859375 C-43.473125 64.55859375 -49.743125 64.55859375 -56.203125 64.55859375 C-56.203125 42.44859375 -56.203125 20.33859375 -56.203125 -2.44140625 C-50.593125 -2.44140625 -44.983125 -2.44140625 -39.203125 -2.44140625 C-38.543125 0.19859375 -37.883125 2.83859375 -37.203125 5.55859375 C-36.73003906 5.08808594 -36.25695312 4.61757813 -35.76953125 4.1328125 C-25.63184384 -5.41202769 -12.09921736 -7.91597732 0 0 Z " fill="#D5910B" transform="translate(737.203125,457.44140625)"/>
<path d="M0 0 C5.91325793 3.20565591 9.06454768 7.51712753 11.12231445 13.82714844 C12.79773551 19.56442346 12.93591115 24.91724373 12.84375 30.859375 C12.83950516 31.91063568 12.83526031 32.96189636 12.83088684 34.04501343 C12.81424264 37.36621933 12.77661739 40.68679344 12.73828125 44.0078125 C12.72321598 46.27473075 12.70953082 48.54165862 12.69726562 50.80859375 C12.66438591 56.33357265 12.61270341 61.85808587 12.55078125 67.3828125 C5.95078125 67.3828125 -0.64921875 67.3828125 -7.44921875 67.3828125 C-7.48660156 64.19238281 -7.52398438 61.00195312 -7.5625 57.71484375 C-7.60872905 54.62029211 -7.65995778 51.52586077 -7.71166992 48.43139648 C-7.74489621 46.28303352 -7.77293528 44.13458375 -7.7956543 41.98608398 C-7.82924206 38.89529474 -7.88156096 35.80529938 -7.9375 32.71484375 C-7.94388992 31.75633011 -7.95027985 30.79781647 -7.9568634 29.81025696 C-8.06478177 24.90039662 -8.16341495 21.31114334 -11.44921875 17.3828125 C-15.49547017 14.68531155 -18.697085 14.72369806 -23.44921875 15.3828125 C-27.85045661 17.62495254 -30.81683434 20.21601603 -33.44921875 24.3828125 C-34.05048811 27.60567146 -34.05409157 30.78670883 -34.05859375 34.05859375 C-34.07513 34.9837529 -34.09166626 35.90891205 -34.10870361 36.86210632 C-34.15714871 39.80657615 -34.17854686 42.75052963 -34.19921875 45.6953125 C-34.22738134 47.69598947 -34.25730917 49.69664242 -34.2890625 51.69726562 C-34.36621966 56.59268462 -34.40677112 61.48647802 -34.44921875 66.3828125 C-40.71921875 66.3828125 -46.98921875 66.3828125 -53.44921875 66.3828125 C-53.44921875 44.2728125 -53.44921875 22.1628125 -53.44921875 -0.6171875 C-47.83921875 -0.6171875 -42.22921875 -0.6171875 -36.44921875 -0.6171875 C-35.78921875 2.3528125 -35.12921875 5.3228125 -34.44921875 8.3828125 C-33.78921875 7.6609375 -33.12921875 6.9390625 -32.44921875 6.1953125 C-23.07229044 -3.20840703 -12.22804283 -4.94656329 0 0 Z " fill="#333536" transform="translate(1389.44921875,455.6171875)"/>
<path d="M0 0 C6.93 0 13.86 0 21 0 C21 25.41 21 50.82 21 77 C34.53 77 48.06 77 62 77 C62 82.94 62 88.88 62 95 C41.54 95 21.08 95 0 95 C0 63.65 0 32.3 0 0 Z " fill="#DA9607" transform="translate(533,428)"/>
<path d="M0 0 C0 6.27 0 12.54 0 19 C6.6 19 13.2 19 20 19 C20 24.28 20 29.56 20 35 C13.4 35 6.8 35 0 35 C0.07406892 39.48500075 0.15694819 43.96803066 0.26245117 48.45214844 C0.2956588 49.9767834 0.32370378 51.50154006 0.34643555 53.02636719 C0.38005958 55.22122954 0.43237542 57.41498088 0.48828125 59.609375 C0.51446533 60.92905273 0.54064941 62.24873047 0.56762695 63.60839844 C1.01320028 67.10354505 1.48733379 68.57839432 4 71 C6.5322109 71.52209801 6.5322109 71.52209801 9.3125 71.3125 C10.69888672 71.27576172 10.69888672 71.27576172 12.11328125 71.23828125 C15.09400239 70.99224067 18.04983536 70.49169411 21 70 C21 74.95 21 79.9 21 85 C11.70606828 88.99223871 0.67289149 90.22429716 -9.09375 86.96875 C-14.70708755 83.60074747 -16.920923 79.08498162 -19 73 C-19.47991335 69.84126081 -19.47224687 66.7788899 -19.390625 63.58984375 C-19.38496521 62.73693253 -19.37930542 61.8840213 -19.37347412 61.00526428 C-19.3513129 58.31540695 -19.30115859 55.62694584 -19.25 52.9375 C-19.22990866 51.09962879 -19.21166254 49.26173643 -19.1953125 47.42382812 C-19.15151514 42.94869134 -19.08263308 38.47458129 -19 34 C-22.96 34 -26.92 34 -31 34 C-31 29.05 -31 24.1 -31 19 C-27.04 19 -23.08 19 -19 19 C-19 14.05 -19 9.1 -19 4 C-16.20895657 3.3306277 -13.41722977 2.66438908 -10.625 2 C-9.8309375 1.80921875 -9.036875 1.6184375 -8.21875 1.421875 C-7.45820312 1.24140625 -6.69765625 1.0609375 -5.9140625 0.875 C-5.2123291 0.70742188 -4.5105957 0.53984375 -3.78759766 0.3671875 C-2 0 -2 0 0 0 Z " fill="#353638" transform="translate(1132,436)"/>
<path d="M0 0 C8.17635301 -0.33690203 16.54715164 1.20781147 23.77734375 5.1484375 C22.81379022 15.70652406 22.81379022 15.70652406 21.77734375 20.1484375 C18.81979174 19.73575582 16.24069217 19.36724092 13.52734375 18.0859375 C7.96088209 16.18828012 2.5200167 16.60563773 -3.03515625 18.3359375 C-7.44656901 20.84438789 -10.59234681 23.25750918 -12.22265625 28.1484375 C-12.36968689 30.58292568 -12.44370964 33.0221852 -12.47265625 35.4609375 C-12.4984375 36.75644531 -12.52421875 38.05195313 -12.55078125 39.38671875 C-12.08919423 44.67848426 -10.59624199 47.90886012 -6.66015625 51.4609375 C-0.83591172 55.49310679 5.94088402 54.56276839 12.77734375 54.1484375 C16.01651261 53.42110454 18.70549982 52.44184547 21.77734375 51.1484375 C22.30986141 53.06189077 22.82793858 54.979367 23.33984375 56.8984375 C23.62988281 57.96578125 23.91992188 59.033125 24.21875 60.1328125 C25.03563178 64.54283162 25.03563178 64.54283162 23.77734375 67.1484375 C22.0703125 68.16015625 22.0703125 68.16015625 19.96484375 68.8359375 C18.93423828 69.18205078 18.93423828 69.18205078 17.8828125 69.53515625 C7.53769013 72.54848503 -6.35842437 73.00721342 -16.22265625 68.1484375 C-24.51466176 63.34386391 -29.7420441 56.66809529 -32.6184082 47.59448242 C-33.59929578 43.62377025 -33.71325765 39.78563996 -33.66015625 35.7109375 C-33.65113281 34.87836426 -33.64210938 34.04579102 -33.6328125 33.18798828 C-33.35413313 23.29293527 -30.49143998 16.42571605 -23.6328125 9.1953125 C-16.63690181 3.25389078 -9.0162549 0.60214005 0 0 Z " fill="#D48F0B" transform="translate(789.22265625,452.8515625)"/>
<path d="M0 0 C0 32.34 0 64.68 0 98 C-6.27 98 -12.54 98 -19 98 C-19 66.32 -19 34.64 -19 2 C-6 0 -6 0 0 0 Z " fill="#303233" transform="translate(1252,424)"/>
<path d="M0 0 C0 5.94 0 11.88 0 18 C-2.97 18.0928125 -2.97 18.0928125 -6 18.1875 C-12.08445884 18.63918472 -16.42957347 19.87891316 -21 24 C-22.1415622 26.2831244 -22.15334372 27.63479305 -22.20532227 30.17431641 C-22.22526749 31.03505768 -22.24521271 31.89579895 -22.26576233 32.78262329 C-22.29083107 34.1779982 -22.29083107 34.1779982 -22.31640625 35.6015625 C-22.33718735 36.55316254 -22.35796844 37.50476257 -22.37937927 38.48519897 C-22.44488133 41.53172432 -22.5037628 44.57833743 -22.5625 47.625 C-22.60568459 49.68750916 -22.64929886 51.75000937 -22.69335938 53.8125 C-22.80137379 58.87491127 -22.90044234 63.93738701 -23 69 C-29.6 69 -36.2 69 -43 69 C-43 46.56 -43 24.12 -43 1 C-37.39 1 -31.78 1 -26 1 C-25.34 3.97 -24.68 6.94 -24 10 C-22.948125 8.906875 -21.89625 7.81375 -20.8125 6.6875 C-14.13991179 -0.24675834 -9.37578717 -0.30909188 0 0 Z " fill="#343637" transform="translate(1099,454)"/>
<path d="M0 0 C4.50911167 2.17403598 6.85819183 4.49093016 9 9 C11.07460303 15.41508456 11.36150287 24.29671219 9.0234375 30.65625 C6.5394385 34.74037105 3.73832522 37.96132492 -0.8125 39.6875 C-5.53788426 40.36255489 -8.84995602 40.58629693 -13.1875 38.375 C-17.05306709 35.11074335 -19.40060346 31.79818961 -21 27 C-21.17431213 24.37960286 -21.27684435 21.80937916 -21.3125 19.1875 C-21.35600586 18.13852539 -21.35600586 18.13852539 -21.40039062 17.06835938 C-21.48074935 10.46039931 -18.79290907 7.01155652 -14.4375 2.125 C-10.18759644 -1.21652723 -5.1151429 -0.82207654 0 0 Z " fill="#F9F9F9" transform="translate(1017,469)"/>
<path d="M0 0 C2.990625 -0.0825 5.98125 -0.165 9.0625 -0.25 C9.99070557 -0.28641602 10.91891113 -0.32283203 11.87524414 -0.36035156 C17.7956113 -0.43879216 21.15561527 0.56225303 26 4 C28.4146757 6.88203229 28.95146336 8.57125964 29.375 12.3125 C28.8316374 17.65556555 28.36773583 21.94498399 24.13671875 25.6171875 C16.39173685 30.22512631 8.7240096 29.36966142 0 29 C0 19.43 0 9.86 0 0 Z " fill="#F8F8F8" transform="translate(923,445)"/>
<path d="M0 0 C0.33 0 0.66 0 1 0 C1 52.8 1 105.6 1 160 C38.95 160 76.9 160 116 160 C116 160.33 116 160.66 116 161 C34.49 161 -47.02 161 -131 161 C-131 160.67 -131 160.34 -131 160 C-88.1 160 -45.2 160 -1 160 C-1.33 143.5 -1.66 127 -2 110 C-7.445 109.505 -7.445 109.505 -13 109 C-13 108.67 -13 108.34 -13 108 C-8.71 108 -4.42 108 0 108 C0 72.36 0 36.72 0 0 Z " fill="#B6A486" transform="translate(281,437)"/>
<path d="M0 0 C0.78375 0.02255859 1.5675 0.04511719 2.375 0.06835938 C4.2925026 0.12681982 6.2090106 0.21648717 8.125 0.3125 C9.03832425 9.97005832 9.03832425 9.97005832 6.89453125 13.12109375 C2.11331353 17.09953911 -2.43085951 17.73123684 -8.41796875 17.65234375 C-10.875 17.3125 -10.875 17.3125 -14.0625 15.25 C-15.875 12.3125 -15.875 12.3125 -16.0625 8.8125 C-13.27944017 0.60979733 -7.763589 -0.42765533 0 0 Z " fill="#F9F9F9" transform="translate(1192.875,492.6875)"/>
<path d="M0 0 C3.73909516 1.55795632 6.02876315 3.45177368 8 7 C8.33 9.31 8.66 11.62 9 14 C-0.57 14 -10.14 14 -20 14 C-16.4499587 3.3498761 -16.4499587 3.3498761 -12.94140625 0.80859375 C-8.76878014 -0.92930083 -4.40047954 -0.61808262 0 0 Z " fill="#F2F2F2" transform="translate(1300,468)"/>
<path d="M0 0 C6.93 0 13.86 0 21 0 C21 24.09 21 48.18 21 73 C20.67 73 20.34 73 20 73 C19.505 37.855 19.505 37.855 19 2 C13.72 2 8.44 2 3 2 C1.71742048 5.84773857 1.82278585 9.49885763 1.79467773 13.51049805 C1.78477814 14.37900391 1.77487854 15.24750977 1.76467896 16.14233398 C1.73307056 19.01543443 1.70830908 21.88855142 1.68359375 24.76171875 C1.66302366 26.75283744 1.64202717 28.74395177 1.62062073 30.73506165 C1.56540579 35.97767608 1.51599392 41.22032988 1.46777344 46.4630127 C1.40872595 52.75228435 1.34250113 59.04148399 1.27747345 65.33069611 C1.17947119 74.88708679 1.09061013 84.44352349 1 94 C21.13 94 41.26 94 62 94 C62 94.33 62 94.66 62 95 C41.54 95 21.08 95 0 95 C0 63.65 0 32.3 0 0 Z " fill="#E4B646" transform="translate(533,428)"/>
<path d="M0 0 C0.33 0 0.66 0 1 0 C1 52.8 1 105.6 1 160 C0.34 160 -0.32 160 -1 160 C-1.33 143.5 -1.66 127 -2 110 C-5.63 109.67 -9.26 109.34 -13 109 C-13 108.67 -13 108.34 -13 108 C-8.71 108 -4.42 108 0 108 C0 72.36 0 36.72 0 0 Z " fill="#B39960" transform="translate(281,437)"/>
<path d="M0 0 C2.64 0 5.28 0 8 0 C8 0.33 8 0.66 8 1 C6.35 1.33 4.7 1.66 3 2 C1.82020024 6.22799439 1.82502591 10.35412697 1.79467773 14.71582031 C1.78477814 15.59422577 1.77487854 16.47263123 1.76467896 17.37765503 C1.73312039 20.27778438 1.7083288 23.17793009 1.68359375 26.078125 C1.66301935 28.09023461 1.64202275 30.10233994 1.62062073 32.11444092 C1.56545024 37.40800512 1.51601879 42.70160801 1.46777344 47.99523926 C1.41752176 53.39790282 1.36185483 58.80051028 1.30664062 64.203125 C1.19912046 74.80203716 1.0981623 85.40099704 1 96 C6.94 96 12.88 96 19 96 C19 82.47 19 68.94 19 55 C19.33 55 19.66 55 20 55 C20 68.86 20 82.72 20 97 C13.4 97 6.8 97 0 97 C0 64.99 0 32.98 0 0 Z " fill="#D8AA4B" transform="translate(823,426)"/>
<path d="M0 0 C3.63 0 7.26 0 11 0 C11 0.33 11 0.66 11 1 C8.36 1.33 5.72 1.66 3 2 C2.67 17.18 2.34 32.36 2 48 C18.17 48 34.34 48 51 48 C51 48.33 51 48.66 51 49 C34.17 49 17.34 49 0 49 C0 32.83 0 16.66 0 0 Z " fill="#1C2122" transform="translate(237,361)"/>
<path d="M0 0 C6.6 0 13.2 0 20 0 C20 22.44 20 44.88 20 68 C14.06 68 8.12 68 2 68 C2 67.67 2 67.34 2 67 C7.61 67 13.22 67 19 67 C19 45.22 19 23.44 19 1 C11.08 1.495 11.08 1.495 3 2 C1.39048457 5.21903085 1.75765252 8.74838832 1.68359375 12.2890625 C1.66281265 13.10748627 1.64203156 13.92591003 1.62062073 14.76913452 C1.55515188 17.38766966 1.49625274 20.00630639 1.4375 22.625 C1.39431224 24.39844807 1.35069786 26.17188581 1.30664062 27.9453125 C1.19947324 32.29677046 1.09819831 36.64833077 1 41 C0.67 41 0.34 41 0 41 C0 27.47 0 13.94 0 0 Z " fill="#DFAE3A" transform="translate(648,455)"/>
<path d="M0 0 C0.33 0 0.66 0 1 0 C1 3.63 1 7.26 1 11 C-18.8 11 -38.6 11 -59 11 C-59 9.02 -59 7.04 -59 5 C-58.67 5 -58.34 5 -58 5 C-58 6.65 -58 8.3 -58 10 C-39.52 9.67 -21.04 9.34 -2 9 C-1.34 6.03 -0.68 3.06 0 0 Z " fill="#C76E04" transform="translate(593,511)"/>
<path d="M0 0 C0.33 0 0.66 0 1 0 C1 12.54 1 25.08 1 38 C-4.94 38 -10.88 38 -17 38 C-17 32.39 -17 26.78 -17 21 C-16.67 21 -16.34 21 -16 21 C-16 26.28 -16 31.56 -16 37 C-11.38 36.67 -6.76 36.34 -2 36 C-1.14669682 31.73348412 -0.80808138 28.05196785 -0.68359375 23.73046875 C-0.66281265 23.04946609 -0.64203156 22.36846344 -0.62062073 21.66682434 C-0.55562122 19.50714492 -0.49647288 17.34735154 -0.4375 15.1875 C-0.3942675 13.71678544 -0.35065175 12.24608209 -0.30664062 10.77539062 C-0.19999141 7.18371283 -0.09858651 3.59190918 0 0 Z " fill="#C67206" transform="translate(841,484)"/>
<path d="M0 0 C1.98 0 3.96 0 6 0 C6 15.51 6 31.02 6 47 C5.67 47 5.34 47 5 47 C4.67 32.15 4.34 17.3 4 2 C2.68 1.34 1.36 0.68 0 0 Z " fill="#3E3F3F" transform="translate(1246,424)"/>
<path d="M0 0 C1.98 0 3.96 0 6 0 C6.33 12.87 6.66 25.74 7 39 C6.01 39.495 6.01 39.495 5 40 C4.9906543 38.89487061 4.98130859 37.78974121 4.97167969 36.65112305 C4.93182019 32.5525678 4.86607363 28.45476642 4.79248047 24.35668945 C4.76424721 22.58269939 4.74304437 20.80858299 4.72900391 19.03442383 C4.70760619 16.48452968 4.66097565 13.93615834 4.609375 11.38671875 C4.60814636 10.59287277 4.60691772 9.79902679 4.60565186 8.98112488 C4.52487816 4.4890265 4.52487816 4.4890265 1.96191406 0.97583008 C1.31448242 0.65380615 0.66705078 0.33178223 0 0 Z " fill="#EDCF7F" transform="translate(837,424)"/>
<path d="M0 0 C6.27 0 12.54 0 19 0 C19 0.33 19 0.66 19 1 C11.08 1.495 11.08 1.495 3 2 C2.87625 3.753125 2.7525 5.50625 2.625 7.3125 C2.35277339 11.16904361 2.18994248 12.71508627 0 16 C0 10.72 0 5.44 0 0 Z " fill="#EBB218" transform="translate(602,455)"/>
<path d="M0 0 C0 0.33 0 0.66 0 1 C-1.98 1 -3.96 1 -6 1 C-6 1.66 -6 2.32 -6 3 C-10.62 3 -15.24 3 -20 3 C-14.09717539 -0.93521641 -6.86423947 -0.12430212 0 0 Z " fill="#ECC049" transform="translate(797,453)"/>
<path d="M0 0 C1.98 0 3.96 0 6 0 C6 4.95 6 9.9 6 15 C5.67 15 5.34 15 5 15 C4.96132812 13.62714844 4.96132812 13.62714844 4.921875 12.2265625 C4.86515625 11.03804688 4.8084375 9.84953125 4.75 8.625 C4.70359375 7.44164062 4.6571875 6.25828125 4.609375 5.0390625 C4.34351201 1.88708247 4.34351201 1.88708247 1.953125 0.5859375 C1.30859375 0.39257812 0.6640625 0.19921875 0 0 Z " fill="#474949" transform="translate(1246,424)"/>
<path d="M0 0 C2.97 0 5.94 0 9 0 C8.67 0.99 8.34 1.98 8 3 C5.03 3 2.06 3 -1 3 C-0.67 2.01 -0.34 1.02 0 0 Z " fill="#EAB62D" transform="translate(717,453)"/>
<path d="M0 0 C2.64 0 5.28 0 8 0 C8 0.33 8 0.66 8 1 C6.824375 1.0928125 6.824375 1.0928125 5.625 1.1875 C4.75875 1.455625 3.8925 1.72375 3 2 C1.62533375 4.47636012 1.62533375 4.47636012 1 7 C0.67 7 0.34 7 0 7 C0 4.69 0 2.38 0 0 Z " fill="#ECB82E" transform="translate(823,426)"/>
<path d="M0 0 C1.98 0 3.96 0 6 0 C6 3.3 6 6.6 6 10 C5.67 10 5.34 10 5 10 C4.87625 8.3603125 4.87625 8.3603125 4.75 6.6875 C4.36310791 2.96723336 4.36310791 2.96723336 1.9375 1.0625 C1.298125 0.711875 0.65875 0.36125 0 0 Z " fill="#F3CD5C" transform="translate(837,424)"/>
<path d="M0 0 C0.33 0.66 0.66 1.32 1 2 C0.06421005 4.35981813 -0.93347808 6.69631264 -2 9 C-2.66 9 -3.32 9 -4 9 C-2.94124926 5.59687262 -1.99097846 2.98646769 0 0 Z " fill="#F6CE60" transform="translate(159,387)"/>
</svg>
